<svg xmlns="http://www.w3.org/2000/svg" viewBox="0 0 64 64" width="64" height="64">
  <path d="M36.50,32.00 L36.75,32.28 L36.89,32.59 L36.99,32.90 L37.06,33.23 L37.11,33.57 L37.14,33.92 L37.14,34.28 L37.11,34.64 L37.06,35.01 L36.98,35.38 L36.87,35.75 L36.73,36.12 L36.57,36.49 L36.38,36.85 L36.17,37.20 L35.92,37.55 L35.65,37.88 L35.36,38.20 L35.04,38.51 L34.69,38.79 L34.32,39.07 L33.93,39.31 L33.51,39.54 L33.08,39.75 L32.62,39.92 L32.15,40.07 L31.67,40.20 L31.16,40.29 L30.65,40.35 L30.13,40.38 L29.60,40.38 L29.06,40.34 L28.52,40.26 L27.97,40.16 L27.43,40.01 L26.89,39.83 L26.36,39.62 L25.83,39.36 L25.31,39.08 L24.81,38.75 L24.32,38.39 L23.85,38.00 L23.40,37.57 L22.98,37.11 L22.57,36.62 L22.20,36.10 L21.85,35.55 L21.53,34.97 L21.25,34.37 L21.00,33.74 L20.79,33.09 L20.62,32.43 L20.49,31.75 L20.40,31.05 L20.35,30.34 L20.35,29.62 L20.39,28.90 L20.47,28.17 L20.60,27.45 L20.78,26.72 L21.01,26.00 L21.28,25.29 L21.59,24.59 L21.96,23.90 L22.36,23.23 L22.82,22.58 L23.31,21.96 L23.85,21.36 L24.43,20.79 L25.05,20.25 L25.71,19.74 L26.40,19.28 L27.12,18.85 L27.88,18.46 L28.67,18.12 L29.48,17.82 L30.32,17.58 L31.17,17.38 L32.05,17.23 L32.94,17.14 L33.84,17.10 L34.74,17.11 L35.66,17.18 L36.57,17.31 L37.48,17.50 L38.39,17.74 L39.28,18.04 L40.16,18.39 L41.03,18.80 L41.88,19.27 L42.70,19.79 L43.49,20.36 L44.25,20.99 L44.98,21.67 L45.67,22.39 L46.32,23.16 L46.93,23.97 L47.49,24.83 L48.00,25.72 L48.46,26.65 L48.86,27.61 L49.21,28.60 L49.50,29.62 L49.72,30.66 L49.89,31.72 L49.99,32.79 L50.03,33.88 L50.00,34.97 L49.90,36.06 L49.74,37.15 L49.50,38.24 L49.21,39.32 L48.84,40.38 L48.41,41.43 L47.91,42.45 L47.35,43.45 L46.72,44.42 L46.04,45.35 L45.29,46.24 L44.49,47.10 L43.63,47.90 L42.72,48.66 L41.76,49.37 L40.76,50.02 L39.71,50.61 L38.62,51.14 L37.49,51.60 L36.34,52.00 L35.15,52.33 L33.95,52.58 L32.72,52.77 L31.48,52.88 L30.22,52.91 L28.96,52.87 L27.70,52.76 L26.44,52.56 L25.20,52.29 L23.96,51.94 L22.74,51.52 L21.54,51.02 L20.38,50.45 L19.24,49.80 L18.14,49.08 L17.08,48.30 L16.06,47.45 L15.10,46.53 L14.18,45.55 L13.33,44.52 L12.53,43.43 L11.80,42.29 L11.14,41.10 L10.55,39.88 L10.03,38.61 L9.59,37.31 L9.22,35.98 L8.94,34.62 L8.73,33.24 L8.61,31.85 L8.58,30.45 L8.63,29.05 L8.76,27.64 L8.99,26.24 L9.29,24.86 L9.68,23.49 L10.16,22.14 L10.72,20.82 L11.35,19.53 L12.07,18.27 L12.87,17.06 L13.74,15.90 L14.68,14.79 L15.69,13.73 L16.76,12.74 L17.90,11.81 L19.10,10.94 L20.35,10.16 L21.64,9.44 L22.99,8.81 L24.37,8.25 L25.78,7.79 L27.23,7.40 L28.70,7.11 L30.18,6.91 L31.68,6.80 L33.19,6.78 L34.70,6.85 L36.20,7.02 L37.69,7.28 L39.16,7.64 L40.61,8.08 L42.03,8.62 L43.41,9.25 L44.75,9.97 L46.04,10.77 L47.27,11.66 L48.44,12.63 L49.53,13.69 L50.52,14.82 L51.40,16.06 L51.82,17.60 L51.82,17.60 L50.30,16.95 L49.11,16.13 L47.94,15.35 L46.75,14.62 L45.55,13.95 L44.33,13.36 L43.09,12.83 L41.84,12.38 L40.58,12.00 L39.31,11.69 L38.04,11.46 L36.76,11.30 L35.49,11.22 L34.23,11.21 L32.98,11.27 L31.74,11.41 L30.52,11.61 L29.33,11.88 L28.16,12.22 L27.03,12.63 L25.92,13.10 L24.86,13.62 L23.83,14.21 L22.85,14.85 L21.91,15.54 L21.03,16.28 L20.19,17.07 L19.41,17.89 L18.68,18.76 L18.01,19.66 L17.40,20.60 L16.85,21.56 L16.36,22.55 L15.93,23.55 L15.56,24.58 L15.26,25.62 L15.03,26.66 L14.85,27.71 L14.74,28.76 L14.69,29.81 L14.71,30.86 L14.79,31.89 L14.92,32.91 L15.12,33.92 L15.37,34.90 L15.68,35.86 L16.05,36.80 L16.47,37.70 L16.93,38.58 L17.45,39.41 L18.01,40.22 L18.61,40.98 L19.25,41.70 L19.93,42.37 L20.65,43.00 L21.40,43.58 L22.17,44.11 L22.97,44.60 L23.79,45.03 L24.63,45.40 L25.49,45.73 L26.35,46.00 L27.23,46.22 L28.11,46.39 L29.00,46.50 L29.88,46.55 L30.76,46.56 L31.64,46.51 L32.50,46.41 L33.35,46.26 L34.18,46.06 L35.00,45.82 L35.79,45.52 L36.56,45.19 L37.30,44.80 L38.02,44.38 L38.70,43.92 L39.35,43.42 L39.97,42.89 L40.55,42.33 L41.09,41.74 L41.59,41.12 L42.04,40.47 L42.46,39.80 L42.83,39.12 L43.16,38.41 L43.45,37.70 L43.69,36.97 L43.88,36.24 L44.03,35.50 L44.14,34.75 L44.20,34.01 L44.21,33.27 L44.18,32.54 L44.11,31.81 L43.99,31.09 L43.83,30.39 L43.63,29.70 L43.40,29.04 L43.12,28.39 L42.81,27.76 L42.46,27.16 L42.08,26.58 L41.67,26.03 L41.23,25.51 L40.77,25.02 L40.28,24.56 L39.76,24.14 L39.23,23.75 L38.67,23.40 L38.10,23.08 L37.52,22.80 L36.92,22.56 L36.32,22.35 L35.71,22.18 L35.09,22.05 L34.48,21.96 L33.86,21.91 L33.24,21.89 L32.63,21.91 L32.03,21.97 L31.44,22.06 L30.85,22.19 L30.28,22.35 L29.73,22.54 L29.19,22.77 L28.67,23.02 L28.17,23.31 L27.70,23.62 L27.24,23.95 L26.81,24.32 L26.41,24.70 L26.03,25.10 L25.68,25.52 L25.36,25.96 L25.07,26.41 L24.81,26.88 L24.58,27.36 L24.38,27.84 L24.22,28.34 L24.08,28.84 L23.98,29.34 L23.90,29.84 L23.86,30.34 L23.85,30.84 L23.87,31.33 L23.92,31.82 L23.99,32.30 L24.10,32.77 L24.23,33.23 L24.39,33.68 L24.57,34.11 L24.78,34.52 L25.01,34.92 L25.26,35.30 L25.54,35.66 L25.83,36.00 L26.13,36.32 L26.46,36.61 L26.80,36.89 L27.15,37.14 L27.51,37.36 L27.88,37.56 L28.26,37.74 L28.64,37.89 L29.03,38.01 L29.42,38.11 L29.82,38.18 L30.21,38.23 L30.60,38.26 L30.99,38.26 L31.37,38.24 L31.75,38.19 L32.12,38.12 L32.47,38.03 L32.82,37.92 L33.16,37.79 L33.49,37.64 L33.80,37.48 L34.10,37.29 L34.38,37.09 L34.64,36.88 L34.89,36.65 L35.12,36.41 L35.34,36.16 L35.53,35.90 L35.71,35.64 L35.86,35.36 L36.00,35.08 L36.12,34.80 L36.22,34.51 L36.30,34.23 L36.37,33.94 L36.41,33.65 L36.44,33.37 L36.46,33.09 L36.46,32.81 L36.45,32.53 L36.43,32.26 L36.50,32.00 Z" fill="#E07A1F"/>
</svg>
